<?xml version="1.0" standalone="no"?>
<!DOCTYPE svg PUBLIC "-//W3C//DTD SVG 20010904//EN"
 "http://www.w3.org/TR/2001/REC-SVG-20010904/DTD/svg10.dtd">
<svg version="1.0" xmlns="http://www.w3.org/2000/svg"
 width="150.000000pt" height="150.000000pt" viewBox="0 0 150.000000 150.000000"
 preserveAspectRatio="xMidYMid meet">
<metadata>
Created by potrace 1.14, written by Peter Selinger 2001-2017
</metadata>
<g transform="translate(0.000000,150.000000) scale(0.100000,-0.100000)"
fill="#000000" stroke="none">
<path d="M797 1489 c-110 -16 -231 -50 -284 -80 -56 -32 -173 -138 -173 -157
0 -6 -4 -12 -9 -14 -17 -7 -151 -239 -151 -263 0 -3 -13 -33 -29 -68 -16 -34
-46 -105 -67 -157 -20 -52 -48 -118 -61 -147 -22 -50 -23 -60 -23 -327 l0
-276 584 0 c534 0 584 1 590 17 6 14 8 14 22 -3 9 -10 13 -14 10 -8 -3 6 3 26
13 45 11 20 17 48 15 68 -3 28 -2 32 10 22 22 -18 26 -62 8 -89 -14 -21 -14
-24 -2 -20 8 2 20 15 27 28 17 34 -4 79 -47 103 -78 42 -96 63 -114 127 -20
70 -19 58 -12 213 3 64 10 126 16 137 8 14 8 26 0 40 -9 16 -8 20 7 21 90 3
148 27 213 86 47 42 52 70 13 79 -36 9 -54 22 -89 63 -24 29 -25 32 -7 22 12
-6 25 -15 28 -21 3 -5 22 -9 42 -8 25 1 40 -4 50 -18 19 -26 35 -93 31 -126
-10 -63 34 -14 65 73 44 125 9 274 -89 379 -26 27 -44 50 -40 50 9 0 -29 70
-52 95 -27 30 -71 59 -136 90 -54 25 -71 28 -180 30 -67 1 -147 -2 -179 -6z"/>
</g>
</svg>
